<svg width="568" height="568" viewBox="0 0 568 568" fill="none" xmlns="http://www.w3.org/2000/svg">
<path d="M273.956 1.2141C269.156 3.21411 264.089 9.7474 262.756 15.8807C261.956 19.2141 261.289 30.8141 261.289 41.7474V61.6141L254.889 55.4807C247.022 48.2807 241.422 45.2141 235.956 45.2141C223.022 45.2141 211.822 58.6808 214.489 70.8141C216.089 78.0141 217.422 79.4807 239.822 101.881L261.289 123.214V148.547V173.881L251.689 176.947C246.356 178.681 237.556 182.147 232.222 184.814L222.489 189.614L209.822 177.081C202.889 170.281 197.289 164.014 197.289 163.347C197.289 162.681 200.222 159.081 203.689 155.347C214.222 144.281 214.222 132.681 204.089 123.481C194.222 114.681 183.689 115.481 171.956 126.147C165.556 131.881 164.756 132.281 162.222 130.547C151.422 123.614 145.822 122.547 138.089 125.747C132.489 128.014 125.822 136.281 124.622 142.014C123.556 148.147 125.822 156.014 129.956 159.881L133.289 163.081L126.756 169.747C115.689 181.214 115.022 192.681 125.156 202.681C134.489 212.014 146.756 210.814 158.356 199.481L163.956 193.881L177.956 207.881L191.822 221.881L185.822 233.881C182.622 240.414 179.289 249.347 178.356 253.481L176.756 261.214H151.289H125.956L103.956 239.214C80.2224 215.481 75.1557 212.014 65.9557 213.747C60.2224 214.814 52.2224 221.614 49.8224 227.481C45.9557 236.414 48.0891 243.214 58.3557 255.747L62.8891 261.214H40.8891C18.0891 261.214 12.2224 262.147 6.75574 267.081C-3.91092 276.547 -1.51092 296.947 10.8891 302.547C15.8224 304.814 19.6891 305.214 39.6891 305.214H62.8891L55.4224 313.481C46.7557 322.947 44.4891 329.214 46.6224 337.081C48.3557 343.614 56.7557 351.347 63.2891 352.681C73.5557 354.547 77.5557 352.014 101.956 327.747L124.622 305.214H149.422H174.356L175.822 311.481C176.756 315.081 180.222 324.147 183.689 331.747L189.822 345.614L176.756 358.147L163.822 370.814L157.289 364.681C153.689 361.214 149.156 357.881 147.289 357.214C131.289 351.081 114.356 366.547 118.756 383.081C119.556 386.147 122.756 390.947 126.756 395.214L133.289 402.147L129.956 406.547C123.022 416.014 122.489 424.281 128.489 433.347C135.689 444.014 153.556 445.881 161.289 436.547C162.889 434.681 163.556 434.947 168.489 439.614C175.556 446.414 181.156 449.214 187.956 449.214C194.756 449.214 200.222 446.547 204.489 440.814C211.289 431.881 210.756 422.281 202.622 412.147C199.689 408.547 197.289 404.947 197.289 404.281C197.289 403.747 203.422 396.947 211.022 389.481L224.756 375.747L237.289 381.747C244.222 384.947 253.156 388.281 257.022 389.214L263.956 390.814V427.614V464.281L241.422 487.214C217.156 511.747 214.622 515.747 216.489 525.881C217.822 532.547 225.556 540.814 232.356 542.681C241.156 545.081 246.089 543.214 255.422 534.414L263.689 526.414L264.222 540.414C264.622 551.881 265.156 555.081 267.422 558.014C272.622 565.081 276.889 567.214 285.689 567.214C301.289 567.214 307.822 558.547 307.956 538.014V526.147L316.356 534.147C325.689 543.214 332.089 545.347 340.489 542.547C346.622 540.547 354.222 532.014 355.422 525.881C357.289 515.747 355.022 512.414 329.289 487.614L305.289 464.547V427.614V390.814L309.689 389.881C311.956 389.347 321.022 386.014 329.822 382.281L345.556 375.614L354.889 384.681C359.956 389.747 365.956 396.147 368.222 398.947L372.222 403.881L366.622 410.281C360.089 417.614 358.622 420.814 358.622 428.147C358.622 435.347 363.156 442.947 369.556 446.547C373.822 448.947 376.356 449.347 382.089 448.947C388.756 448.414 390.089 447.747 396.356 441.481L403.289 434.681L409.289 438.681C414.622 442.281 416.089 442.681 423.022 442.281C429.156 441.747 431.422 440.947 434.756 437.747C440.356 432.414 442.622 427.747 442.622 421.214C442.622 415.214 441.156 411.614 436.889 406.947L434.222 403.881L441.022 396.681C451.022 386.147 451.956 375.214 443.956 366.014C435.289 356.281 423.689 356.014 411.422 365.214L403.822 370.947L389.689 356.947L375.689 342.814L380.889 332.414C383.822 326.547 387.289 317.747 388.622 312.814L391.022 303.881H416.489H441.956L463.289 325.347C475.022 337.081 486.222 347.614 488.222 348.681C490.222 349.747 495.156 350.547 499.156 350.547C505.822 350.547 507.022 350.147 511.822 345.481C517.956 339.614 520.356 332.281 518.756 324.814C517.556 319.881 509.022 307.881 506.489 307.881C505.822 307.881 505.289 307.347 505.289 306.681C505.289 305.881 515.689 305.214 529.822 304.947C552.222 304.547 554.756 304.281 558.089 301.747C564.889 296.681 567.022 292.547 567.156 284.281C567.289 274.281 563.956 268.281 555.956 264.147C550.489 261.481 548.222 261.214 527.422 261.214H504.889L511.822 254.014C515.556 250.014 519.289 245.081 519.956 243.214C523.556 233.747 518.756 220.814 510.089 216.681C503.956 213.747 494.889 214.014 489.822 217.081C485.822 219.481 454.089 248.414 446.089 257.081L442.089 261.214H416.489H390.889L388.622 254.147C387.289 250.414 383.956 241.614 381.022 234.814L375.689 222.547L389.422 208.147L403.289 193.614L409.956 199.881C421.289 210.414 431.556 211.747 440.756 203.614C452.489 193.214 452.222 180.547 439.956 168.547L434.756 163.481L437.956 159.614C441.689 155.214 443.289 148.414 442.089 141.481C439.689 126.281 420.889 119.081 408.622 128.547L403.689 132.147L398.222 126.814C390.356 119.214 384.756 116.814 377.556 117.614C366.622 118.814 358.622 127.881 358.622 138.814C358.622 146.681 360.622 150.814 367.822 157.881L373.289 163.081L359.156 177.347L345.022 191.614L335.422 186.547C326.622 181.881 317.956 178.681 309.022 176.681L305.289 175.881V150.947V126.014L328.489 102.547C347.956 82.9474 351.822 78.4141 352.622 74.1474C353.956 66.9474 352.356 60.4141 347.956 55.3474C342.756 49.4807 337.422 47.3474 329.422 48.1474C323.956 48.6807 321.289 50.0141 314.089 55.7474L305.289 62.8141V38.9474C305.289 12.2807 304.356 8.41405 296.089 2.94738C292.622 0.680715 289.689 -0.119241 284.089 0.0140925C279.956 0.0140925 275.422 0.547438 273.956 1.2141ZM303.822 221.081C315.422 224.681 322.356 229.214 331.422 238.947C341.689 249.881 346.222 259.347 348.222 273.081C353.822 312.814 327.556 345.747 287.956 348.681C268.222 350.281 249.556 342.947 236.222 328.681C226.356 318.014 221.422 308.681 219.289 296.414C214.356 267.881 227.822 238.281 251.289 226.147C266.622 218.281 288.089 216.147 303.822 221.081Z" fill="white"/>
</svg>
